<?xml version="1.0" encoding="UTF-8" standalone="no"?>
<!DOCTYPE svg PUBLIC "-//W3C//DTD SVG 1.1//EN" "http://www.w3.org/Graphics/SVG/1.1/DTD/svg11.dtd">
<svg width="100%" height="100%" viewBox="0 0 2804 2804" version="1.1" xmlns="http://www.w3.org/2000/svg" xmlns:xlink="http://www.w3.org/1999/xlink" xml:space="preserve" xmlns:serif="http://www.serif.com/" style="fill-rule:evenodd;clip-rule:evenodd;stroke-linejoin:round;stroke-miterlimit:2;">
    <g transform="matrix(3.125,0,0,3.125,0,0)">
        <g id="interactron" transform="matrix(1,0,0,1,-273.723,-2256.03)">
            <g style="filter:url(#_Effect1);">
                <g id="Interactron-Base-Shape" transform="matrix(1.10147,0,0,1.10147,-104.819,449.489)">
                    <g id="Shadows">
                        <g id="Interactron-Base-Shape1" serif:id="Interactron-Base-Shape">
                            <circle cx="750.851" cy="2047.3" r="120.294"/>
                            <path d="M750.851,1921.56c69.398,0 125.741,56.343 125.741,125.741c-0,69.398 -56.343,125.741 -125.741,125.741c-69.398,-0 -125.741,-56.343 -125.741,-125.741c0,-69.398 56.343,-125.741 125.741,-125.741Zm0,5.448c-66.392,-0 -120.293,53.901 -120.293,120.293c-0,66.392 53.901,120.294 120.293,120.294c66.392,-0 120.294,-53.902 120.294,-120.294c-0,-66.392 -53.902,-120.293 -120.294,-120.293Z"/>
                        </g>
                    </g>
                </g>
            </g>
            <g id="Shapes">
                <g id="Interactron-Base" transform="matrix(1.10147,0,0,1.10147,-104.819,449.489)">
                    <circle cx="750.851" cy="2047.3" r="120.294" style="fill:#ebebeb;"/>
                </g>
                <g id="Contact-Outline" transform="matrix(0.898165,0,0,0.898165,72.9064,275.655)">
                    <path d="M722.937,2582.49c67.213,-0 121.781,54.568 121.781,121.781c0,67.212 -54.568,121.78 -121.781,121.78c-67.212,0 -121.78,-54.568 -121.78,-121.78c-0,-67.213 54.568,-121.781 121.78,-121.781Zm0,69.561c28.821,0 52.22,23.399 52.22,52.22c-0,28.82 -23.399,52.219 -52.22,52.219c-28.82,0 -52.219,-23.399 -52.219,-52.219c-0,-28.821 23.399,-52.22 52.219,-52.22Z"/>
                    <path d="M722.937,2569.13c74.587,0 135.142,60.555 135.142,135.142c-0,74.586 -60.555,135.141 -135.142,135.141c-74.586,0 -135.141,-60.555 -135.141,-135.141c0,-74.587 60.555,-135.142 135.141,-135.142Zm0,13.361c-67.212,-0 -121.78,54.568 -121.78,121.781c-0,67.212 54.568,121.78 121.78,121.78c67.213,0 121.781,-54.568 121.781,-121.78c0,-67.213 -54.568,-121.781 -121.781,-121.781Zm0,69.561c28.821,0 52.22,23.399 52.22,52.22c-0,28.82 -23.399,52.219 -52.22,52.219c-28.82,0 -52.219,-23.399 -52.219,-52.219c-0,-28.821 23.399,-52.22 52.219,-52.22Zm0,13.361c-21.446,-0 -38.859,17.412 -38.859,38.859c0,21.447 17.413,38.859 38.859,38.859c21.447,-0 38.859,-17.412 38.859,-38.859c0,-21.447 -17.412,-38.859 -38.859,-38.859Z"/>
                </g>
                <g id="Interactron-Contact" transform="matrix(0.898165,0,0,0.898165,72.9064,275.655)">
                    <path d="M722.937,2582.49c67.213,-0 121.781,54.568 121.781,121.781c0,67.212 -54.568,121.78 -121.781,121.78c-67.212,0 -121.78,-54.568 -121.78,-121.78c-0,-67.213 54.568,-121.781 121.78,-121.781Zm0,69.561c28.821,0 52.22,23.399 52.22,52.22c-0,28.82 -23.399,52.219 -52.22,52.219c-28.82,0 -52.219,-23.399 -52.219,-52.219c-0,-28.821 23.399,-52.22 52.219,-52.22Z"/>
                    <path d="M722.937,2575.81c70.9,-0 128.461,57.561 128.461,128.461c0,70.899 -57.561,128.461 -128.461,128.461c-70.899,-0 -128.461,-57.562 -128.461,-128.461c0,-70.9 57.562,-128.461 128.461,-128.461Zm0,6.68c-67.212,-0 -121.78,54.568 -121.78,121.781c-0,67.212 54.568,121.78 121.78,121.78c67.213,0 121.781,-54.568 121.781,-121.78c0,-67.213 -54.568,-121.781 -121.781,-121.781Zm0,69.561c28.821,0 52.22,23.399 52.22,52.22c-0,28.82 -23.399,52.219 -52.22,52.219c-28.82,0 -52.219,-23.399 -52.219,-52.219c-0,-28.821 23.399,-52.22 52.219,-52.22Zm0,6.68c-25.133,0 -45.539,20.406 -45.539,45.54c0,25.134 20.406,45.539 45.539,45.539c25.134,0 45.54,-20.405 45.54,-45.539c-0,-25.134 -20.406,-45.54 -45.54,-45.54Z" style="fill:#ffac00;"/>
                </g>
            </g>
        </g>
        <g id="codex-ring" transform="matrix(0.990639,0,0,0.990639,-264.76,-8.67973)">
            <g id="codex-ring-shadow" transform="matrix(1.12531,0,0,1.12531,-267.461,-236.756)">
                <g style="filter:url(#_Effect2);">
                    <path d="M877.5,272c192.342,0 348.5,156.158 348.5,348.5c0,192.342 -156.158,348.5 -348.5,348.5c-192.342,0 -348.5,-156.158 -348.5,-348.5c0,-192.342 156.158,-348.5 348.5,-348.5Zm0,97.58c138.487,-0 250.92,112.433 250.92,250.92c0,138.487 -112.433,250.92 -250.92,250.92c-138.487,0 -250.92,-112.433 -250.92,-250.92c-0,-138.487 112.433,-250.92 250.92,-250.92Z"/>
                    <path d="M877.5,250.471c204.225,0 370.029,165.804 370.029,370.029c-0,204.225 -165.804,370.029 -370.029,370.029c-204.225,-0 -370.029,-165.804 -370.029,-370.029c0,-204.225 165.804,-370.029 370.029,-370.029Zm0,21.529c-192.342,0 -348.5,156.158 -348.5,348.5c0,192.342 156.158,348.5 348.5,348.5c192.342,0 348.5,-156.158 348.5,-348.5c0,-192.342 -156.158,-348.5 -348.5,-348.5Zm0,97.58c138.487,-0 250.92,112.433 250.92,250.92c0,138.487 -112.433,250.92 -250.92,250.92c-138.487,0 -250.92,-112.433 -250.92,-250.92c-0,-138.487 112.433,-250.92 250.92,-250.92Zm0,21.529c-126.604,-0 -229.391,102.787 -229.391,229.391c-0,126.604 102.787,229.391 229.391,229.391c126.604,0 229.391,-102.787 229.391,-229.391c0,-126.604 -102.787,-229.391 -229.391,-229.391Z"/>
                </g>
            </g>
            <g id="codex-ring-shape" transform="matrix(1.12531,0,0,1.12531,-267.461,-236.756)">
                <path d="M877.5,272c192.342,0 348.5,156.158 348.5,348.5c0,192.342 -156.158,348.5 -348.5,348.5c-192.342,0 -348.5,-156.158 -348.5,-348.5c0,-192.342 156.158,-348.5 348.5,-348.5Zm0,97.58c138.487,-0 250.92,112.433 250.92,250.92c0,138.487 -112.433,250.92 -250.92,250.92c-138.487,0 -250.92,-112.433 -250.92,-250.92c-0,-138.487 112.433,-250.92 250.92,-250.92Z"/>
                <path d="M877.5,261.236c198.283,-0 359.264,160.981 359.264,359.264c0,198.283 -160.981,359.264 -359.264,359.264c-198.283,0 -359.264,-160.981 -359.264,-359.264c-0,-198.283 160.981,-359.264 359.264,-359.264Zm-0,10.764c-192.342,0 -348.5,156.158 -348.5,348.5c0,192.342 156.158,348.5 348.5,348.5c192.342,0 348.5,-156.158 348.5,-348.5c0,-192.342 -156.158,-348.5 -348.5,-348.5Zm0,97.58c138.487,-0 250.92,112.433 250.92,250.92c0,138.487 -112.433,250.92 -250.92,250.92c-138.487,0 -250.92,-112.433 -250.92,-250.92c-0,-138.487 112.433,-250.92 250.92,-250.92Zm0,10.764c-132.545,0 -240.156,107.611 -240.156,240.156c0,132.545 107.611,240.156 240.156,240.156c132.545,-0 240.156,-107.611 240.156,-240.156c-0,-132.545 -107.611,-240.156 -240.156,-240.156Z" style="fill:#fff;"/>
            </g>
        </g>
    </g>
    <defs>
        <filter id="_Effect1" filterUnits="userSpaceOnUse" x="511.723" y="2494.03" width="421" height="421">
            <feGaussianBlur in="SourceGraphic" stdDeviation="12"/>
        </filter>
        <filter id="_Effect2" filterUnits="userSpaceOnUse" x="442.884" y="185.884" width="869.232" height="869.232">
            <feGaussianBlur in="SourceGraphic" stdDeviation="10.7645"/>
        </filter>
    </defs>
</svg>
